<?xml version="1.0" encoding="UTF-8"?>
<svg version="1.1" xmlns="http://www.w3.org/2000/svg" width="512" height="512">
<path d="M0 0 C1.05741948 -0.00654048 1.05741948 -0.00654048 2.13620096 -0.0132131 C4.50437896 -0.02418357 6.87197646 -0.0137393 9.24015045 -0.00342751 C10.95269745 -0.00688337 12.66524223 -0.01164745 14.37778234 -0.01760924 C19.08854599 -0.03015876 23.79912783 -0.02393091 28.50989223 -0.01465058 C33.58835137 -0.00787659 38.66677875 -0.01833312 43.74523163 -0.02659035 C53.69582141 -0.03994752 63.6463434 -0.03704111 73.59693587 -0.02835242 C81.68221127 -0.02158409 89.76746764 -0.02065547 97.85274506 -0.02392387 C99.00239891 -0.02438357 100.15205276 -0.02484327 101.3365446 -0.0253169 C103.67186328 -0.02627605 106.00718196 -0.02724869 108.34250063 -0.02823468 C130.25353789 -0.03679438 152.16453753 -0.02694533 174.07556862 -0.01083358 C192.88634814 0.00257012 211.69707213 0.0002422 230.50785065 -0.01358986 C252.33916021 -0.02963541 274.17043678 -0.03597036 296.00175142 -0.02675307 C298.32859834 -0.0257974 300.65544525 -0.02485428 302.98229218 -0.02392387 C304.69968307 -0.02322963 304.69968307 -0.02322963 306.45176873 -0.02252137 C314.52964941 -0.01992841 322.60750921 -0.02430907 330.68538666 -0.03136253 C340.52629815 -0.03976635 350.36713783 -0.03752096 360.20804107 -0.0215203 C365.23139644 -0.01362252 370.25463198 -0.01057162 375.27798653 -0.02046776 C379.87334966 -0.02938399 384.46848148 -0.02453267 389.06382352 -0.0085351 C390.72929477 -0.00517424 392.39478541 -0.00691052 394.06024426 -0.01416247 C396.31878901 -0.02324516 398.57653464 -0.01396957 400.83503723 0 C402.09109976 0.00048706 403.34716229 0.00097411 404.64128733 0.00147593 C409.05265196 0.5078146 411.66413524 2.03461267 414.66751862 5.25252342 C416.78488994 8.85205467 417.14640377 11.27887466 416.29251862 15.37752342 C414.68522178 18.88435287 412.84041292 20.88236975 409.91751862 23.37752342 C406.91751862 24.37752342 406.91751862 24.37752342 398.91751862 24.37752342 C398.91751862 93.01752342 398.91751862 161.65752342 398.91751862 232.37752342 C403.20751862 232.70752342 407.49751862 233.03752342 411.91751862 233.37752342 C419.20816628 236.77430245 423.55106595 240.03395924 426.91751862 247.37752342 C429.15262377 254.08283889 428.82837041 261.31543842 425.91751862 267.75252342 C421.98475511 274.6822087 416.46992821 278.22756152 408.91751862 280.37752342 C405.51643014 280.63052309 405.51643014 280.63052309 401.71033859 280.63479233 C401.00404804 280.6382984 400.29775748 280.64180448 399.57006419 280.6454168 C397.20340198 280.6547206 394.8369864 280.64981016 392.47031403 280.64494896 C390.75634363 280.64868574 389.04237494 280.65328737 387.32840896 280.6586796 C382.61819695 280.67092167 377.90805592 280.67064771 373.19783163 280.66829085 C368.11793261 280.66788299 363.03805643 280.67891893 357.95816803 280.68840599 C348.00538707 280.70502372 338.05262981 280.71051589 328.09983614 280.71163075 C320.00986251 280.71258088 311.9198967 280.71668944 303.82992554 280.723032 C280.89561527 280.74064672 257.96132373 280.74987054 235.02700666 280.74837105 C233.1721509 280.74825118 233.1721509 280.74825118 231.2798233 280.74812889 C229.42270386 280.74800625 229.42270386 280.74800625 227.52806684 280.74788113 C207.46307357 280.74706822 187.39815536 280.76620646 167.3331838 280.79440562 C146.73281414 280.82312887 126.1324811 280.83694622 105.5320909 280.83521807 C93.9656722 280.83455397 82.39933219 280.84005533 70.83293152 280.86157417 C60.98485942 280.87977861 51.13690169 280.88413935 41.28882006 280.87055533 C36.26479836 280.86402192 31.24099611 280.86392203 26.21699524 280.88126183 C21.61519196 280.896981 17.01378232 280.89414064 12.41198871 280.87669356 C10.74981903 280.87362113 9.08762006 280.87726524 7.42548493 280.88841371 C-2.37333809 280.94976943 -11.52747246 280.85535914 -19.51998138 274.41267967 C-20.03560638 273.76170311 -20.55123138 273.11072655 -21.08248138 272.44002342 C-21.61873138 271.79162498 -22.15498138 271.14322655 -22.70748138 270.47517967 C-26.85462188 264.14843409 -26.89539706 257.73654955 -26.08248138 250.37752342 C-24.18147121 243.90524693 -20.87279985 239.23773573 -15.25826263 235.49471092 C-9.25582807 232.41267091 -3.79097777 232.37752342 2.91751862 232.37752342 C2.91751862 163.73752342 2.91751862 95.09752342 2.91751862 24.37752342 C0.27751862 24.37752342 -2.36248138 24.37752342 -5.08248138 24.37752342 C-9.2036348 22.82237119 -12.00019411 21.32290983 -14.08248138 17.37752342 C-15.56251599 11.77453529 -14.97603742 8.39302056 -12.08248138 3.37752342 C-8.07465254 0.28202212 -4.99302369 0.00193612 0 0 Z M49.91751862 24.37752342 C49.91751862 93.01752342 49.91751862 161.65752342 49.91751862 232.37752342 C72.68751862 232.37752342 95.45751862 232.37752342 118.91751862 232.37752342 C118.91751862 163.73752342 118.91751862 95.09752342 118.91751862 24.37752342 C96.14751862 24.37752342 73.37751862 24.37752342 49.91751862 24.37752342 Z M165.91751862 24.37752342 C165.91751862 93.01752342 165.91751862 161.65752342 165.91751862 232.37752342 C188.68751862 232.37752342 211.45751862 232.37752342 234.91751862 232.37752342 C234.91751862 163.73752342 234.91751862 95.09752342 234.91751862 24.37752342 C212.14751862 24.37752342 189.37751862 24.37752342 165.91751862 24.37752342 Z M282.91751862 24.37752342 C282.91751862 93.01752342 282.91751862 161.65752342 282.91751862 232.37752342 C305.68751862 232.37752342 328.45751862 232.37752342 351.91751862 232.37752342 C351.91751862 163.73752342 351.91751862 95.09752342 351.91751862 24.37752342 C329.14751862 24.37752342 306.37751862 24.37752342 282.91751862 24.37752342 Z " fill="#000000" transform="translate(55.082481384277344,171.6224765777588)"/>
<path d="M0 0 C1.11136322 0.46731033 1.11136322 0.46731033 2.24517822 0.94406128 C9.47329541 4.0070512 16.61726323 7.25166986 23.74203491 10.54656982 C27.55765029 12.31067475 31.37879003 14.0627562 35.19921875 15.81640625 C36.34895927 16.34462479 36.34895927 16.34462479 37.52192688 16.8835144 C44.4473734 20.06264309 51.3944928 23.19139603 58.3515625 26.30078125 C59.50325928 26.81568115 60.65495605 27.33058105 61.84155273 27.86108398 C63.65266726 28.67079198 65.46378296 29.48049735 67.27497864 30.2900238 C75.68230727 34.04930007 84.07881659 37.83266159 92.4765625 41.61328125 C94.18578739 42.3826578 95.89501592 43.15202625 97.60424805 43.92138672 C101.06514169 45.47924608 104.52599102 47.03720384 107.98681641 48.59521484 C113.0600185 50.87903157 118.13347871 53.16227441 123.20703125 55.4453125 C124.44059608 56.00040497 124.44059608 56.00040497 125.69908142 56.56671143 C129.85168808 58.43532207 134.00432601 60.30386322 138.15698242 62.17236328 C145.67674203 65.55598194 153.19634813 68.93993851 160.71488953 72.32626343 C163.23436909 73.46093484 165.7540245 74.59521517 168.27368164 75.72949219 C171.59402558 77.22437054 174.91342106 78.72132794 178.23217773 80.21972656 C185.87074791 83.6654786 193.51681715 87.09085559 201.19396973 90.44993591 C204.70114601 91.98485373 208.20467322 93.52801171 211.70819092 95.07125854 C213.36561228 95.79818047 215.02495653 96.52073636 216.68634033 97.23855591 C218.98722568 98.23281685 221.28112609 99.24182889 223.57421875 100.25390625 C224.24218979 100.53759567 224.91016083 100.8212851 225.59837341 101.11357117 C232.32285552 104.11602982 238.44398145 108.56888884 241.50390625 115.45703125 C243.29232709 122.14509026 243.44671874 130.02110054 240.6015625 136.42578125 C236.20009182 143.61279806 230.16232808 146.92304865 222.1640625 148.92578125 C219.32943407 149.29472803 216.55338997 149.33237171 213.69754887 149.30609798 C212.89155948 149.3107579 212.08557009 149.31541782 211.25515679 149.32021895 C208.56732054 149.33212424 205.87999397 149.32279092 203.19215393 149.3134613 C201.24047967 149.31763617 199.28880784 149.32311452 197.3371405 149.32978112 C191.9837879 149.34423424 186.63058927 149.33999137 181.27722824 149.3326143 C175.50003036 149.32788466 169.72286589 149.34039066 163.94567871 149.35063171 C152.63170612 149.36782872 141.31778905 149.36865788 130.00380678 149.36341881 C120.80835322 149.35937774 111.61291607 149.36081992 102.4174633 149.36616707 C100.45450446 149.3672897 100.45450446 149.3672897 98.45188988 149.36843501 C95.79342 149.36996649 93.13495012 149.37150483 90.47648024 149.37304998 C72.62711078 149.38310722 54.77774717 149.38704247 36.9283762 149.3794241 C35.88175634 149.37897834 35.88175634 149.37897834 34.81399264 149.37852357 C29.14802541 149.37607471 23.48205825 149.37346308 17.8160911 149.37083944 C-4.28547658 149.36073663 -26.3869683 149.36909402 -48.48852539 149.39233398 C-73.32852685 149.41841128 -98.16848212 149.43120382 -123.00849777 149.42414623 C-136.15770677 149.42065168 -149.30685337 149.42290178 -162.45605278 149.44039726 C-173.64902258 149.45510519 -184.84188606 149.455773 -196.03485375 149.43832635 C-201.74544817 149.42980266 -207.45585254 149.42770043 -213.16643715 149.44297791 C-218.39540433 149.45679376 -223.62401807 149.45210156 -228.85296465 149.43273867 C-230.74316956 149.42896887 -232.63340257 149.43192878 -234.52358251 149.44235032 C-255.10214762 149.54773046 -255.10214762 149.54773046 -263.2734375 142.9609375 C-264.046875 141.98447266 -264.046875 141.98447266 -264.8359375 140.98828125 C-265.3721875 140.33988281 -265.9084375 139.69148437 -266.4609375 139.0234375 C-270.7851006 132.42663186 -270.5210797 125.58376304 -269.8359375 117.92578125 C-268.18900039 111.66347548 -264.11251542 107.51929928 -258.8359375 103.92578125 C-253.56656005 101.16499719 -248.15015035 98.7672297 -242.7109375 96.36328125 C-241.12802156 95.6532452 -239.54558971 94.94212902 -237.96362305 94.22998047 C-233.99194562 92.44501472 -230.01459859 90.67310739 -226.03546143 88.90484619 C-222.84927862 87.48659389 -219.66870459 86.05612431 -216.48828125 84.625 C-211.8489067 82.53851752 -207.20688525 80.45811756 -202.5625 78.3828125 C-193.54198903 74.35129252 -184.53294637 70.29431327 -175.5234375 66.23828125 C-173.81421261 65.4689047 -172.10498408 64.69953625 -170.39575195 63.93017578 C-166.93485831 62.37231642 -163.47400898 60.81435866 -160.01318359 59.25634766 C-152.45079071 55.85196537 -144.88780883 52.44889202 -137.32485962 49.04574585 C-133.16186034 47.1724804 -128.99890098 45.29912624 -124.8359375 43.42578125 C-123.16927102 42.67578083 -121.50260436 41.92578083 -119.8359375 41.17578125 C-119.0109375 40.80453125 -118.1859375 40.43328125 -117.3359375 40.05078125 C-109.8359375 36.67578125 -109.8359375 36.67578125 -107.33631897 35.55096436 C-105.66836932 34.80037938 -104.0004311 34.049769 -102.33250427 33.2991333 C-98.18556028 31.43287576 -94.0384235 29.56704915 -89.89086914 27.70214844 C-82.15580215 24.22362067 -74.42268011 20.74095755 -66.69613647 17.24353027 C-63.08974723 15.61140358 -59.48229042 13.98164411 -55.87475586 12.35205078 C-54.17337766 11.58271806 -52.47250952 10.8122561 -50.7722168 10.04052734 C-42.74697334 6.39833247 -34.7102305 2.79412793 -26.55078125 -0.5390625 C-24.81429321 -1.24857056 -24.81429321 -1.24857056 -23.04272461 -1.97241211 C-14.53125988 -4.89683086 -8.09938691 -3.47000866 0 0 Z " fill="#000000" transform="translate(269.8359375,3.07421875)"/>
<path d="M0 0 C0.80759297 -0.00380567 1.61518595 -0.00761134 2.44725144 -0.01153234 C5.15850405 -0.02185424 7.86954753 -0.01794083 10.58081436 -0.01409245 C12.54227282 -0.01854451 14.50372948 -0.02385846 16.4651835 -0.02996117 C21.85948423 -0.04415519 27.25372738 -0.04580419 32.64804411 -0.04536426 C38.46414732 -0.04701122 44.28022672 -0.06007541 50.09631729 -0.07155704 C62.81523573 -0.09441494 75.5341375 -0.1023284 88.25307369 -0.10738349 C96.19348207 -0.11063936 104.13388559 -0.11716114 112.07429123 -0.12438488 C134.05570055 -0.14395124 156.03710555 -0.16043673 178.01852417 -0.16326141 C178.72151737 -0.16335547 179.42451058 -0.16344954 180.1488066 -0.16354645 C182.99770712 -0.16392493 185.84660764 -0.16428892 188.69550816 -0.16464943 C190.83975166 -0.16492115 192.98399517 -0.16519782 195.12823868 -0.16547489 C195.83677889 -0.16556291 196.54531911 -0.16565094 197.27533023 -0.16574163 C219.53753669 -0.168647 241.79965631 -0.19074291 264.06183243 -0.22699833 C289.07430573 -0.26773177 314.08671986 -0.29142003 339.09922814 -0.29172093 C352.34240042 -0.29220159 365.58546564 -0.30082289 378.82860947 -0.32971859 C390.10400528 -0.35420755 401.37924856 -0.36153203 412.65466377 -0.34647106 C418.40781297 -0.33929229 424.16066081 -0.34020174 429.9137764 -0.36288166 C435.18177728 -0.38345029 440.44924468 -0.38089066 445.71723965 -0.36000682 C447.62167106 -0.35650794 449.52614079 -0.36143872 451.43052194 -0.37571125 C471.61271957 -0.5172044 471.61271957 -0.5172044 479.77039504 7.03183085 C485.47465604 13.02518911 486.34004885 19.22393288 486.16046524 27.29521847 C485.38824603 34.80950536 481.54098295 39.03811741 475.95343399 43.81474972 C471.07559589 47.17564376 466.59322307 47.54903355 460.79778194 47.51733112 C459.98736687 47.5208372 459.1769518 47.52434327 458.3419787 47.52795559 C455.61512115 47.53729016 452.8884762 47.53234097 450.16160965 47.52748775 C448.19133957 47.53122298 446.22107096 47.53582398 444.25080472 47.5412184 C438.82757718 47.55347962 433.40441117 47.55318426 427.98117292 47.55082965 C422.13578102 47.55042227 416.29040906 47.56145305 410.4450264 47.57094479 C398.98948168 47.58757279 387.53395754 47.59305514 376.07840177 47.59416954 C366.76889847 47.59511915 357.45940198 47.59922506 348.14990044 47.60557079 C345.47091542 47.60736586 342.7919304 47.60914549 340.11294538 47.61092055 C339.4469557 47.61136264 338.78096603 47.61180474 338.09479485 47.61226023 C319.35960903 47.62457005 300.62442553 47.63246122 281.8892355 47.63157368 C281.18276012 47.63154252 280.47628474 47.63151136 279.74840102 47.63147926 C276.1676283 47.63131304 272.58685558 47.63111496 269.00608286 47.63090985 C267.93933703 47.63085001 267.93933703 47.63085001 266.85104079 47.63078897 C265.41289381 47.63070809 263.97474684 47.6306245 262.53659987 47.63053818 C240.16046325 47.62931262 217.78438725 47.64432617 195.40826797 47.67168331 C170.27313423 47.70240091 145.1380403 47.719616 120.00288659 47.71775687 C106.69271205 47.71701553 93.38260163 47.72261591 80.07244301 47.74411297 C68.74061917 47.76229723 57.40889466 47.76669475 46.07706257 47.75309412 C40.29383122 47.74655063 34.51079058 47.74649717 28.72757721 47.76380062 C23.43441462 47.77947516 18.14159487 47.77672518 12.84844092 47.75923236 C10.93257765 47.75615007 9.01668914 47.75984085 7.10085561 47.77095251 C4.49725378 47.78505419 1.89485775 47.77450297 -0.70870304 47.75784016 C-1.45313482 47.76777652 -2.19756659 47.77771288 -2.9645569 47.78795034 C-9.7122064 47.69660355 -14.71147222 45.25049407 -19.89422226 41.01006222 C-25.32206767 34.37602894 -26.83914516 29.03516322 -26.51922226 20.37724972 C-25.60695147 12.79399881 -21.97680227 8.61230798 -16.33953476 3.70537472 C-11.20247286 0.32332329 -5.99425199 -0.03077219 0 0 Z " fill="#000000" transform="translate(26.144222259521484,464.7399377822876)"/>
</svg>
